<svg width="20" height="20" viewBox="0 0 20 20" fill="none" xmlns="http://www.w3.org/2000/svg">
<g clip-path="url(#clip0_84:1403)">
<path d="M16.8754 6.24962C16.662 6.25169 16.4506 6.2906 16.2504 6.36463V6.24962C16.2505 4.96135 15.8499 3.70498 15.1041 2.65453L16.6923 1.06636L15.8085 0.182583L14.2822 1.70887C11.8827 -0.569625 8.11902 -0.569625 5.7195 1.70887L4.19196 0.182583L3.30818 1.06636L4.89635 2.65453C4.15059 3.70498 3.74999 4.96135 3.75007 6.24962V6.36463C3.54991 6.2906 3.33846 6.25169 3.12505 6.24962C2.08948 6.24962 1.25 7.0891 1.25 8.12467V13.1248C1.25 14.1604 2.08948 14.9999 3.12505 14.9999C3.33846 14.9978 3.54991 14.9589 3.75007 14.8849V16.2499H5.62512V20H9.37522V16.2499H10.6253V20H14.3754V16.2499H16.2504V14.8849C16.4506 14.9589 16.662 14.9978 16.8754 14.9999C17.911 14.9999 18.7505 14.1604 18.7505 13.1248V8.12467C18.7505 7.0891 17.911 6.24962 16.8754 6.24962ZM3.75007 13.1248C3.75007 13.47 3.47026 13.7498 3.12505 13.7498C2.77985 13.7498 2.50003 13.47 2.50003 13.1248V8.12467C2.50003 7.77947 2.77985 7.49966 3.12505 7.49966C3.47026 7.49966 3.75007 7.77947 3.75007 8.12467V13.1248ZM8.12519 18.75H6.87515V16.2499H8.12519V18.75ZM13.1253 18.75H11.8753V16.2499H13.1253V18.75ZM15.0004 14.9999H5.0001V7.49966H15.0004V14.9999ZM5.0001 6.24962C5.0001 3.48814 7.23876 1.24949 10.0002 1.24949C12.7617 1.24949 15.0004 3.48814 15.0004 6.24962H5.0001ZM17.5004 13.1248C17.5004 13.47 17.2206 13.7498 16.8754 13.7498C16.5302 13.7498 16.2504 13.47 16.2504 13.1248V8.12467C16.2504 7.77947 16.5302 7.49966 16.8754 7.49966C17.2206 7.49966 17.5004 7.77947 17.5004 8.12467V13.1248Z" fill="url(#paint0_linear_84:1403)"/>
<path d="M8.75003 3.74945H7.5V4.99949H8.75003V3.74945Z" fill="url(#paint1_linear_84:1403)"/>
<path d="M12.5 3.74945H11.25V4.99949H12.5V3.74945Z" fill="url(#paint2_linear_84:1403)"/>
</g>
<defs>
<linearGradient id="paint0_linear_84:1403" x1="10.0002" y1="9.37424e-07" x2="4.33676" y2="18.2417" gradientUnits="userSpaceOnUse">
<stop stop-color="#2E9ADB"/>
<stop offset="1" stop-color="#55B570"/>
</linearGradient>
<linearGradient id="paint1_linear_84:1403" x1="8.12502" y1="3.74945" x2="7.80876" y2="4.91357" gradientUnits="userSpaceOnUse">
<stop stop-color="#2E9ADB"/>
<stop offset="1" stop-color="#55B570"/>
</linearGradient>
<linearGradient id="paint2_linear_84:1403" x1="11.875" y1="3.74945" x2="11.5588" y2="4.91357" gradientUnits="userSpaceOnUse">
<stop stop-color="#2E9ADB"/>
<stop offset="1" stop-color="#55B570"/>
</linearGradient>
<clipPath id="clip0_84:1403">
<rect width="20" height="20" fill="white"/>
</clipPath>
</defs>
</svg>
