<svg width="20" height="20" viewBox="0 0 20 20" fill="none" xmlns="http://www.w3.org/2000/svg">
<g clip-path="url(#clip0_84:1414)">
<path d="M14.0944 0.536276C14.0469 0.212567 13.7619 -0.0274026 13.432 0.0025936C12.2759 0.0838333 10.9661 0.796243 10.1749 1.77362C9.31376 2.83348 8.92006 4.13207 9.12253 5.24818C9.17503 5.53814 9.42375 5.75186 9.71746 5.76186C9.7512 5.76311 9.7837 5.76311 9.81745 5.76311C11.006 5.76311 12.2746 5.0982 13.0745 4.04833C13.8919 2.98347 14.2631 1.70363 14.0944 0.536276ZM12.0822 3.28968L12.0809 3.29093C11.636 3.8746 10.9785 4.29955 10.3274 4.45203C10.3874 3.73587 10.7573 3.03721 11.1448 2.56102C11.5685 2.03858 12.2284 1.59989 12.8733 1.38492C12.7871 2.27106 12.3171 2.98471 12.0822 3.28968Z" fill="url(#paint0_linear_84:1414)"/>
<path d="M18.495 14.142C18.4288 13.9833 18.3025 13.8608 18.1425 13.7983C16.8727 13.3084 16.0203 12.1335 15.9216 10.7312C15.8253 9.35387 16.484 8.13152 17.6851 7.46161C17.8451 7.37287 17.9588 7.21914 17.9938 7.03916C18.0288 6.85918 17.9851 6.67296 17.8713 6.52923C16.8152 5.19065 15.3079 4.39075 13.8393 4.39075C12.817 4.39075 12.0996 4.66696 11.5221 4.88943C11.0772 5.06066 10.7272 5.19564 10.3185 5.19564C9.8611 5.19564 9.4324 5.03941 8.93621 4.85944C8.33379 4.64072 7.65013 4.39325 6.78774 4.39325C5.1217 4.39325 3.43691 5.41062 2.39079 7.04791C0.820992 9.51135 1.26719 13.7571 3.45316 17.1429C4.30555 18.4652 5.49415 19.985 7.14519 20C7.15519 20 7.16644 20 7.17769 20C7.86135 20 8.33379 19.785 8.75124 19.5963C9.18743 19.3988 9.59863 19.2114 10.3385 19.2064C11.0409 19.1851 11.4796 19.3901 11.9058 19.5888C12.322 19.7838 12.807 19.9938 13.4944 19.9963C15.1004 19.9838 16.2915 18.4727 17.2452 16.9954C17.8226 16.1005 18.0451 15.6368 18.4888 14.6344C18.5587 14.4782 18.5612 14.2995 18.495 14.142ZM16.1965 16.318C15.4691 17.4453 14.503 18.7389 13.4844 18.7477C13.0844 18.7389 12.802 18.6289 12.4358 18.4577C11.9533 18.2327 11.3472 17.9715 10.3323 17.959C9.32491 17.964 8.72124 18.2377 8.23505 18.459C7.85635 18.6289 7.58263 18.7264 7.15644 18.7502C6.10282 18.7402 5.18544 17.5253 4.50303 16.4655C2.33455 13.1059 2.3383 9.4526 3.44316 7.72032C4.26181 6.43924 5.54289 5.64309 6.78649 5.64309C7.4289 5.64309 7.95384 5.83431 8.51127 6.03554C9.06745 6.23676 9.64237 6.44549 10.3198 6.44549C10.9597 6.44549 11.4746 6.24676 11.9721 6.05554C12.502 5.85181 13.0494 5.64059 13.8406 5.64059C14.7392 5.64059 15.6729 6.06428 16.4328 6.79794C15.2092 7.75407 14.5617 9.20889 14.6755 10.8199C14.793 12.4847 15.7029 13.9145 17.0977 14.6869C16.8227 15.2844 16.6115 15.6743 16.1965 16.318Z" fill="url(#paint1_linear_84:1414)"/>
</g>
<defs>
<linearGradient id="paint0_linear_84:1414" x1="11.6023" y1="6.13053e-05" x2="9.976" y2="5.26031" gradientUnits="userSpaceOnUse">
<stop stop-color="#2E9ADB"/>
<stop offset="1" stop-color="#55B570"/>
</linearGradient>
<linearGradient id="paint1_linear_84:1414" x1="10" y1="4.39075" x2="6.35077" y2="19.0943" gradientUnits="userSpaceOnUse">
<stop stop-color="#2E9ADB"/>
<stop offset="1" stop-color="#55B570"/>
</linearGradient>
<clipPath id="clip0_84:1414">
<rect width="20" height="20" fill="white"/>
</clipPath>
</defs>
</svg>
